<?xml version="1.0" encoding="UTF-8"?><svg id="Layer_2" xmlns="http://www.w3.org/2000/svg" viewBox="0 0 2501 2501"><defs><style>.cls-1{fill:#fff;}</style></defs><g id="Layer_1-2"><g id="Logo"><path id="Exterieur" class="cls-1" d="M695.44,129.56c386.64-163.1,850.17-87.15,1165.18,227.86,415.1,415.1,415.1,1088.11,0,1503.21-415.1,415.1-1088.11,415.1-1503.21,0C42.41,1545.61-33.54,1082.08,129.56,695.44-102.04,1163.02-23.14,1745.34,366.26,2134.74c488.35,488.35,1280.13,488.35,1768.48,0,488.35-488.35,488.35-1280.13,0-1768.48C1745.34-23.14,1163.02-102.04,695.44,129.56Z"/><g id="Bars_copy"><g><path class="cls-1" d="M892.76,326.82c-11.81-32.45-47.69-49.18-80.14-37.37h0c-32.45,11.81-49.18,47.69-37.37,80.14l556.01,1527.61c11.81,32.45,47.69,49.18,80.14,37.37h0c32.45-11.81,49.18-47.69,37.37-80.14L892.76,326.82Z"/><path class="cls-1" d="M1108,448.09c-11.81-32.45-47.69-49.18-80.14-37.37h0c-32.45,11.81-49.18,47.69-37.37,80.14l427.7,1175.09c11.81,32.45,47.69,49.18,80.14,37.37h0c32.45-11.81,49.18-47.69,37.37-80.14L1108,448.09Z"/><path class="cls-1" d="M1323.23,569.36c-11.81-32.45-47.69-49.18-80.14-37.37h0c-32.45,11.81-49.18,47.69-37.37,80.14l299.39,822.56c11.81,32.45,47.69,49.18,80.14,37.37h0c32.45-11.81,49.18-47.69,37.37-80.14l-299.39-822.56Z"/><path class="cls-1" d="M1495.7,573.13c-11.81-32.45-47.69-49.18-80.14-37.37h0c-32.45,11.81-49.18,47.69-37.37,80.14l256.62,705.05c11.81,32.45,47.69,49.18,80.14,37.37,32.45-11.81,49.18-47.69,37.37-80.14l-256.62-705.05Z"/><path class="cls-1" d="M1561.24,283.12c-11.81-32.45-47.69-49.18-80.14-37.37h0c-32.45,11.81-49.18,47.69-37.37,80.14l427.7,1175.09c11.81,32.45,47.69,49.18,80.14,37.37,32.45-11.81,49.18-47.69,37.37-80.14L1561.24,283.12Z"/><path class="cls-1" d="M1840.64,580.66c-11.81-32.45-47.69-49.18-80.14-37.37h0c-32.45,11.81-49.18,47.69-37.37,80.14l171.08,470.04c11.81,32.45,47.69,49.18,80.14,37.37h0c32.45-11.81,49.18-47.69,37.37-80.14l-171.08-470.04Z"/><path class="cls-1" d="M2167.12,1007.59l-182.54-501.53c-36.11-52.3-77.41-102.1-123.96-148.64-11.19-11.19-22.59-22.07-34.14-32.66-18.02,16.58-25.32,42.97-16.42,67.41l299.39,822.56c8.47,23.27,29.31,38.45,52.39,40.83,11.38-82.19,13.15-165.45,5.29-247.98Z"/><path class="cls-1" d="M784.45,499.31c-11.81-32.45-47.69-49.18-80.14-37.37h0c-32.45,11.81-49.18,47.69-37.37,80.14l470.47,1292.6c11.81,32.45,47.69,49.18,80.14,37.37h0c32.45-11.81,49.18-47.69,37.37-80.14L784.45,499.31Z"/><path class="cls-1" d="M676.13,671.81c-11.81-32.45-47.69-49.18-80.14-37.37h0c-32.45,11.81-49.18,47.69-37.37,80.14l384.93,1057.58c11.81,32.45,47.69,49.18,80.14,37.37h0c32.45-11.81,49.18-47.69,37.37-80.14L676.13,671.81Z"/><path class="cls-1" d="M567.82,844.31c-11.81-32.45-47.69-49.18-80.14-37.37-32.45,11.81-49.18,47.69-37.37,80.14l299.39,822.56c11.81,32.45,47.69,49.18,80.14,37.37h0c32.45-11.81,49.18-47.69,37.37-80.14l-299.39-822.56Z"/><path class="cls-1" d="M459.51,1016.81c-11.81-32.45-47.69-49.18-80.14-37.37h0c-32.45,11.81-49.18,47.69-37.37,80.14l213.85,587.54c11.81,32.45,47.69,49.18,80.14,37.37h0c32.45-11.81,49.18-47.69,37.37-80.14l-213.85-587.54Z"/><path class="cls-1" d="M244.27,895.54c-11.81-32.45-47.69-49.18-80.14-37.37-32.45,11.81-49.18,47.69-37.37,80.14l342.16,940.07c11.81,32.45,47.69,49.18,80.14,37.37h0c32.45-11.81,49.18-47.69,37.37-80.14L244.27,895.54Z"/><path class="cls-1" d="M413.96,1831.84L114.57,1009.28c-9.29-25.52-33.46-41.31-59.15-41.15-10.08,75.77-11.98,152.42-5.72,228.53l191.68,526.63c34.19,48.18,72.86,94.15,116.04,137.33,13.21,13.21,26.69,26,40.41,38.37,17.81-16.6,24.98-42.84,16.13-67.15Z"/></g></g></g></g></svg>