<?xml version="1.0" encoding="UTF-8" standalone="no"?>
<!DOCTYPE svg PUBLIC "-//W3C//DTD SVG 1.1//EN" "http://www.w3.org/Graphics/SVG/1.1/DTD/svg11.dtd">
<svg width="100%" height="100%" viewBox="0 0 1000 1000" version="1.1" xmlns="http://www.w3.org/2000/svg" xmlns:xlink="http://www.w3.org/1999/xlink" xml:space="preserve" xmlns:serif="http://www.serif.com/" style="fill-rule:evenodd;clip-rule:evenodd;stroke-linejoin:round;stroke-miterlimit:2;">
    <g transform="matrix(1,0,0,1,59.9885,59.9887)">
        <path d="M158.485,461.381C168.771,433.973 204.196,407.226 237.542,401.688L358.382,381.622C363.147,380.831 367.613,380.515 371.739,380.636C400.83,376.283 425.544,384.542 445.192,405.442C447.107,406.767 449.018,408.289 450.914,410.008L482.899,280.194C490.704,248.518 510.694,227.962 542.029,218.883L680.663,178.715C708.781,170.567 751.403,182.963 775.784,206.377L864.135,291.224C867.619,294.57 870.543,297.961 872.914,301.34C893.8,322.052 901.961,346.798 896.961,375.044C897.152,380.378 896.503,386.319 894.918,392.751L865.613,511.689C857.526,544.511 828.133,577.772 800.015,585.919L660.72,626.279C660.52,626.337 660.321,626.393 660.122,626.448C627.505,635.899 602.211,629.671 577.718,606.15L560.26,589.383C559.786,596.539 558.463,603.278 556.22,609.254L505.262,745.03C505.189,745.225 505.115,745.419 505.04,745.611C493.108,777.404 472.99,793.952 439.49,799.514L298.116,822.99C269.237,827.786 228.361,810.481 206.892,784.371L121.544,680.57C100.824,655.371 96.305,627.056 107.768,596.513L158.485,461.381Z" style="fill:rgb(255,125,197);fill-opacity:0.5;"/>
    </g>
    <path d="M438.555,373.087L462.671,275.21C472.384,235.786 497.232,210.172 536.231,198.873L674.865,158.704C708.892,148.845 760.71,163.016 790.215,191.351L878.565,276.198C882.564,280.038 885.981,283.936 888.845,287.814C913.496,312.919 923.228,342.741 917.826,376.589C917.85,383.045 917.019,390.134 915.146,397.735L885.842,516.673C876.055,556.392 839.84,596.07 805.812,605.929L666.518,646.289C666.279,646.358 666.041,646.426 665.831,646.484C628.795,657.193 599.339,651.658 571.304,628.356L524.767,752.35C524.68,752.583 524.591,752.815 524.513,753.018C509.647,792.559 484.595,813.143 442.903,820.066L301.529,843.542C266.581,849.346 216.781,829.2 190.8,797.602L105.452,693.802C79.664,662.439 73.996,627.206 88.263,589.192L138.98,454.06C151.428,420.893 193.775,387.838 234.129,381.137L354.969,361.07C360.438,360.162 365.606,359.755 370.427,359.779C395.99,356.301 418.789,360.769 438.555,373.087ZM177.99,468.701L127.273,603.833C118.613,626.906 121.984,648.303 137.636,667.339L222.984,771.139C239.943,791.764 271.891,806.227 294.703,802.439L436.077,778.963C461.353,774.765 476.532,762.279 485.535,738.29C485.564,738.215 485.593,738.139 485.622,738.064C485.668,737.947 485.713,737.829 485.757,737.71L536.716,601.934C538.286,597.75 539.14,593.017 539.472,588.007C540.007,579.924 545.178,572.885 552.731,569.958C560.283,567.031 568.848,568.746 574.69,574.357L592.149,591.123C610.629,608.871 629.714,613.569 654.324,606.438C654.402,606.416 654.479,606.394 654.557,606.372C654.679,606.338 654.8,606.304 654.923,606.268L794.217,565.909C816.428,559.473 838.997,532.631 845.385,506.705L874.69,387.767C875.762,383.414 876.271,379.402 876.141,375.792C876.088,374.326 876.191,372.858 876.447,371.414C880.2,350.209 873.923,331.681 858.244,316.132C857.368,315.263 856.57,314.318 855.861,313.307C854.203,310.945 852.14,308.59 849.704,306.25L761.354,221.403C742.095,202.908 708.672,192.289 686.461,198.725L547.827,238.893C524.156,245.752 509.023,261.249 503.127,285.178L471.143,414.992C469.387,422.116 464.014,427.792 456.997,429.934C449.979,432.076 442.352,430.369 436.918,425.44C435.731,424.363 434.538,423.405 433.34,422.575C432.133,421.741 431.018,420.781 430.013,419.712C415.263,404.023 396.661,397.972 374.822,401.24C373.601,401.422 372.367,401.496 371.133,401.46C368.248,401.376 365.127,401.621 361.795,402.174L240.955,422.24C214.614,426.614 186.115,447.051 177.99,468.701Z" style="fill:rgb(62,62,112);"/>
    <g>
        <g transform="matrix(0.0805603,0.0198491,-0.0198491,0.0805603,447.731,69.491)">
            <g>
                <path d="M1576.51,1452.01L1534.3,1476.38C1193.77,1672.98 1019.1,1971.17 1019.1,2364.38L1019.1,2507.67C1019.1,2100.25 1267.18,1912.71 1572.74,2089.13L1662.15,2140.75C1309.32,1937.04 1270.94,1628.42 1576.51,1452.01Z" style="fill:rgb(187,187,187);"/>
                <path d="M5644.27,1487.27C5948.42,1669.43 6115.27,1935.5 6138.21,2280.47C6065.9,2026.63 5857.39,1933.2 5611.71,2075.04L5598.02,2082.95C5859.91,1931.74 5869.15,1683.42 5644.27,1487.27Z" style="fill:rgb(238,238,238);"/>
                <path d="M3544.34,4006.83C3544.34,3599.41 3792.41,3125.41 4097.98,2948.99L4133.67,2928.39C3828.11,3104.8 3293.57,3082.65 2940.74,2878.94L2990.69,2907.78C3296.26,3084.2 3544.34,3558.2 3544.34,3965.61L3544.34,4006.83Z" style="fill:rgb(238,238,238);"/>
                <path d="M2990.69,5860.54L3068.59,5905.51C3423.05,6110.15 3737.01,6110.1 4091.46,5905.46L4091.47,5905.45C3788.9,6075.49 3544.34,5887.73 3544.34,5483.2L3544.34,5441.99C3544.34,5849.41 3296.26,6036.95 2990.69,5860.54Z" style="fill:rgb(220,218,217);"/>
                <g transform="matrix(0.838048,-0.483847,0.866025,0.5,-857.21,1676.01)">
                    <path d="M4091.46,1919.29C4091.46,1511.87 3795.44,1181.1 3430.83,1181.1L1683.5,1181.1C1318.88,1181.1 1022.87,1511.87 1022.87,1919.29L1022.87,3395.67C1022.87,3803.09 1318.88,4133.86 1683.5,4133.86L3430.83,4133.86C3795.44,4133.86 4091.46,3803.09 4091.46,3395.67L4091.46,1919.29Z" style="fill:rgb(218,218,218);"/>
                </g>
                <g transform="matrix(0.854143,-0.49314,4.74145e-17,1,2670.66,2591.95)">
                    <path d="M4091.46,1919.29C4091.46,1511.87 3801.02,1181.1 3443.28,1181.1L1671.05,1181.1C1313.31,1181.1 1022.87,1511.87 1022.87,1919.29L1022.87,3395.67C1022.87,3803.09 1313.31,4133.86 1671.05,4133.86L3443.28,4133.86C3801.02,4133.86 4091.46,3803.09 4091.46,3395.67L4091.46,1919.29Z" style="fill:white;"/>
                </g>
                <g transform="matrix(0.822928,0.475118,-4.56817e-17,1,177.358,102.398)">
                    <path d="M4091.46,1919.29C4091.46,1511.87 3790,1181.1 3418.69,1181.1L1695.63,1181.1C1324.32,1181.1 1022.87,1511.87 1022.87,1919.29L1022.87,3395.67C1022.87,3803.09 1324.32,4133.86 1695.63,4133.86L3418.69,4133.86C3790,4133.86 4091.46,3803.09 4091.46,3395.67L4091.46,1919.29Z" style="fill:rgb(170,170,170);"/>
                </g>
            </g>
            <g transform="matrix(11.7026,-2.88339,2.88339,11.7026,-5440,477.755)">
                <path d="M837.675,398.293C851.701,394.229 860.252,402.44 856.758,416.619C853.265,430.797 839.042,445.607 825.016,449.671C810.991,453.735 802.44,445.523 805.934,431.345C809.427,417.166 823.65,402.356 837.675,398.293ZM695.021,524.452C709.046,520.388 717.597,528.599 714.103,542.778C710.61,556.956 696.387,571.766 682.361,575.83C668.336,579.894 659.785,571.682 663.279,557.504C666.772,543.325 680.995,528.515 695.021,524.452ZM523.659,318.905C534.191,329.02 539.906,348.742 536.412,362.921C532.919,377.099 521.532,380.398 511,370.284C500.468,360.169 494.754,340.447 498.247,326.269C501.74,312.09 513.127,308.791 523.659,318.905ZM591.375,496.897C601.907,507.012 607.622,526.734 604.128,540.913C600.635,555.091 589.248,558.39 578.716,548.276C568.184,538.161 562.469,518.439 565.963,504.26C569.456,490.082 580.843,486.783 591.375,496.897ZM557.098,409.851C567.63,419.965 573.345,439.688 569.851,453.866C566.358,468.044 554.971,471.343 544.439,461.229C533.907,451.114 528.193,431.392 531.686,417.214C535.179,403.035 546.566,399.736 557.098,409.851ZM682.556,264.757C696.581,260.694 716.519,265.606 727.051,275.72C737.583,285.835 734.747,297.346 720.721,301.409C706.696,305.473 686.758,300.561 676.226,290.446C665.694,280.332 668.53,268.821 682.556,264.757Z"/>
            </g>
        </g>
        <g transform="matrix(0.0640874,-0.0526949,0.0526949,0.0640874,-68.3587,582.745)">
            <g>
                <path d="M1576.51,1452.01L1534.3,1476.38C1193.77,1672.98 1019.1,1971.17 1019.1,2364.38L1019.1,2507.67C1019.1,2100.25 1267.18,1912.71 1572.74,2089.13L1662.15,2140.75C1309.32,1937.04 1270.94,1628.42 1576.51,1452.01Z" style="fill:rgb(52,161,218);"/>
                <path d="M5644.27,1487.27C5948.42,1669.43 6115.27,1935.5 6138.21,2280.47C6065.9,2026.63 5857.39,1933.2 5611.71,2075.04L5598.02,2082.95C5859.91,1931.74 5869.15,1683.42 5644.27,1487.27Z" style="fill:rgb(107,189,234);"/>
                <path d="M3544.34,4006.83C3544.34,3599.41 3792.41,3125.41 4097.98,2948.99L4133.67,2928.39C3828.11,3104.8 3293.57,3082.65 2940.74,2878.94L2990.69,2907.78C3296.26,3084.2 3544.34,3558.2 3544.34,3965.61L3544.34,4006.83Z" style="fill:rgb(107,189,234);"/>
                <path d="M2990.69,5860.54L3068.59,5905.51C3423.05,6110.15 3737.01,6110.1 4091.46,5905.46L4091.47,5905.45C3788.9,6075.49 3544.34,5887.73 3544.34,5483.2L3544.34,5441.99C3544.34,5849.41 3296.26,6036.95 2990.69,5860.54Z" style="fill:rgb(65,152,199);"/>
                <g transform="matrix(0.838048,-0.483847,0.866025,0.5,-857.21,1676.01)">
                    <path d="M4091.46,1919.29C4091.46,1511.87 3795.44,1181.1 3430.83,1181.1L1683.5,1181.1C1318.88,1181.1 1022.87,1511.87 1022.87,1919.29L1022.87,3395.67C1022.87,3803.09 1318.88,4133.86 1683.5,4133.86L3430.83,4133.86C3795.44,4133.86 4091.46,3803.09 4091.46,3395.67L4091.46,1919.29Z" style="fill:rgb(89,180,229);"/>
                </g>
                <g transform="matrix(0.854143,-0.49314,4.74145e-17,1,2670.66,2591.95)">
                    <path d="M4091.46,1919.29C4091.46,1511.87 3801.02,1181.1 3443.28,1181.1L1671.05,1181.1C1313.31,1181.1 1022.87,1511.87 1022.87,1919.29L1022.87,3395.67C1022.87,3803.09 1313.31,4133.86 1671.05,4133.86L3443.28,4133.86C3801.02,4133.86 4091.46,3803.09 4091.46,3395.67L4091.46,1919.29Z" style="fill:rgb(125,210,240);"/>
                </g>
                <g transform="matrix(0.822928,0.475118,-4.56817e-17,1,177.358,102.398)">
                    <path d="M4091.46,1919.29C4091.46,1511.87 3790,1181.1 3418.69,1181.1L1695.63,1181.1C1324.32,1181.1 1022.87,1511.87 1022.87,1919.29L1022.87,3395.67C1022.87,3803.09 1324.32,4133.86 1695.63,4133.86L3418.69,4133.86C3790,4133.86 4091.46,3803.09 4091.46,3395.67L4091.46,1919.29Z" style="fill:rgb(93,163,217);"/>
                </g>
            </g>
            <g>
                <g transform="matrix(0.866025,-0.5,1.03585e-16,1,977.291,2620.49)">
                    <circle cx="5279.13" cy="2992.38" r="318.881"/>
                </g>
                <g transform="matrix(0.866025,-0.5,1.03585e-16,1,-300.784,4636.8)">
                    <circle cx="5279.13" cy="2992.38" r="318.881"/>
                </g>
                <g transform="matrix(0.866025,-0.5,1.66533e-16,1,978.011,3959.82)">
                    <circle cx="5279.13" cy="2992.38" r="318.881"/>
                </g>
                <g transform="matrix(0.866025,-0.5,2.77556e-16,1,-324.94,3241.14)">
                    <circle cx="5279.13" cy="2992.38" r="318.881"/>
                </g>
                <g transform="matrix(-0.866025,-0.5,-4.80741e-17,1,6179.59,2665.94)">
                    <circle cx="5279.13" cy="2992.38" r="318.881"/>
                </g>
                <g transform="matrix(-0.866025,-0.5,-4.80741e-17,1,7485.26,4553.67)">
                    <circle cx="5279.13" cy="2992.38" r="318.881"/>
                </g>
                <g transform="matrix(-0.866025,-0.5,-4.80741e-17,1,6833.14,3633.82)">
                    <circle cx="5279.13" cy="2992.38" r="318.881"/>
                </g>
                <g transform="matrix(-0.866025,-0.5,5.55112e-17,1,7486.88,3195.77)">
                    <circle cx="5279.13" cy="2992.38" r="318.881"/>
                </g>
                <g transform="matrix(-0.866025,-0.5,2.77556e-16,1,6175.47,4064.92)">
                    <circle cx="5279.13" cy="2992.38" r="318.881"/>
                </g>
                <g transform="matrix(-0.866025,0.5,0.866025,0.5,6997.37,-2384.9)">
                    <circle cx="5279.13" cy="2992.38" r="318.881"/>
                </g>
                <g transform="matrix(-0.866025,0.5,0.866025,0.5,5512.83,-3213.1)">
                    <circle cx="5279.13" cy="2992.38" r="318.881"/>
                </g>
                <g transform="matrix(-0.866025,0.5,0.866025,0.5,4789.26,-2858.98)">
                    <circle cx="5279.13" cy="2992.38" r="318.881"/>
                </g>
                <g transform="matrix(-0.866025,0.5,0.866025,0.5,6301.1,-2063.97)">
                    <circle cx="5279.13" cy="2992.38" r="318.881"/>
                </g>
                <g transform="matrix(-0.866025,0.5,0.866025,0.5,4024.01,-2454.17)">
                    <circle cx="5279.13" cy="2992.38" r="318.881"/>
                </g>
                <g transform="matrix(-0.866025,0.5,0.866025,0.5,5559.59,-1688.04)">
                    <circle cx="5279.13" cy="2992.38" r="318.881"/>
                </g>
            </g>
        </g>
    </g>
</svg>
