<?xml version="1.0" encoding="UTF-8" standalone="no"?>
<!DOCTYPE svg PUBLIC "-//W3C//DTD SVG 1.1//EN" "http://www.w3.org/Graphics/SVG/1.1/DTD/svg11.dtd">
<svg width="100%" height="100%" viewBox="0 0 1000 1000" version="1.1" xmlns="http://www.w3.org/2000/svg" xmlns:xlink="http://www.w3.org/1999/xlink" xml:space="preserve" xmlns:serif="http://www.serif.com/" style="fill-rule:evenodd;clip-rule:evenodd;stroke-linejoin:round;stroke-miterlimit:1.5;">
    <g transform="matrix(1,0,0,1,60.0135,60.0108)">
        <path d="M445.752,847.786L334.125,917.228L304.611,901.46L280.386,165.676L480.381,75.389L496.339,560.09L594.597,226.561C594.824,224.076 606.979,183.186 606.979,183.186L606.982,183.187C609.53,175.068 617.387,168.54 629.996,165.493C655.556,159.317 691.025,169.766 709.153,188.813C718.096,198.209 721.159,207.954 718.899,216.158L718.902,216.159C718.902,216.159 706.948,257.106 705.791,259.319L552.233,780.56L449.373,924.611L445.752,847.786Z" style="fill:rgb(255,125,197);fill-opacity:0.5;"/>
    </g>
    <path d="M445.752,847.786L334.125,917.228L304.611,901.46L280.386,165.676L480.381,75.389L496.339,560.09L594.597,226.561C594.824,224.076 606.979,183.186 606.979,183.186L606.982,183.187C609.53,175.068 617.387,168.54 629.996,165.493C655.556,159.317 691.025,169.766 709.153,188.813C718.096,198.209 721.159,207.954 718.899,216.158L718.902,216.159C718.902,216.159 706.948,257.106 705.791,259.319L552.233,780.56L449.373,924.611L445.752,847.786Z" style="fill:white;stroke:rgb(62,62,112);stroke-width:29.17px;"/>
    <g>
        <g id="ruler" transform="matrix(0.852402,-0.530278,0.0346062,1.05112,135.96,182.389)">
            <rect x="200" y="100" width="200" height="700" style="fill:rgb(236,137,184);"/>
            <g transform="matrix(1.20281,0.57407,-5.51957e-17,0.994318,-600,-472.727)">
                <path d="M637.395,880L665.108,896L665.108,192L637.395,176L637.395,880Z" style="fill:rgb(184,114,175);"/>
            </g>
            <g transform="matrix(1.20281,0.57407,-5.51957e-17,0.994318,-600,-472.727)">
                <path d="M665.108,192L637.395,176L831.384,96L665.108,192Z" style="fill:rgb(221,124,184);"/>
            </g>
            <g transform="matrix(1.14961,0.579965,-0.0378488,0.932273,-149.398,-248.888)">
                <path d="M415.916,183.532L412.615,178.225L480.807,135.803L484.109,141.11L415.916,183.532ZM443.335,186.701L441.134,183.163L482.049,157.71L484.25,161.248L443.335,186.701ZM444.027,207.723L441.826,204.186L482.742,178.732L484.943,182.27L444.027,207.723ZM444.719,228.746L442.518,225.208L483.434,199.755L485.635,203.293L444.719,228.746ZM445.411,249.768L443.211,246.23L484.126,220.777L486.327,224.315L445.411,249.768ZM419.377,288.644L416.076,283.337L484.268,240.915L487.569,246.222L419.377,288.644ZM446.796,291.813L444.595,288.275L485.51,262.822L487.711,266.36L446.796,291.813ZM447.488,312.835L445.287,309.297L486.202,283.844L488.403,287.382L447.488,312.835ZM448.18,333.858L445.979,330.32L486.894,304.866L489.095,308.404L448.18,333.858ZM448.872,354.88L446.671,351.342L487.586,325.889L489.787,329.427L448.872,354.88ZM422.838,393.756L419.536,388.449L487.728,346.027L491.03,351.334L422.838,393.756ZM450.256,396.925L448.055,393.387L488.971,367.934L491.172,371.472L450.256,396.925ZM450.948,417.947L448.748,414.409L489.663,388.956L491.864,392.494L450.948,417.947ZM451.641,438.97L449.44,435.432L490.355,409.978L492.556,413.516L451.641,438.97ZM452.333,459.992L450.132,456.454L491.047,431.001L493.248,434.539L452.333,459.992ZM426.298,498.868L422.997,493.561L491.189,451.139L494.49,456.446L426.298,498.868ZM453.717,502.037L451.516,498.499L492.431,473.046L494.632,476.584L453.717,502.037ZM454.409,523.059L452.208,519.521L493.123,494.068L495.324,497.606L454.409,523.059ZM455.101,544.082L452.9,540.544L493.816,515.09L496.017,518.628L455.101,544.082ZM455.793,565.104L453.592,561.566L494.508,536.113L496.709,539.651L455.793,565.104ZM429.759,603.98L426.457,598.673L494.65,556.251L497.951,561.558L429.759,603.98ZM457.178,607.149L454.977,603.611L495.892,578.158L498.093,581.695L457.178,607.149ZM457.87,628.171L455.669,624.633L496.584,599.18L498.785,602.718L457.87,628.171ZM458.562,649.194L456.361,645.656L497.276,620.202L499.477,623.74L458.562,649.194ZM459.254,670.216L457.053,666.678L497.968,641.225L500.169,644.763L459.254,670.216ZM433.219,709.092L429.918,703.785L498.11,661.363L501.412,666.669L433.219,709.092ZM460.638,712.261L458.437,708.723L499.353,683.269L501.554,686.807L460.638,712.261ZM461.33,733.283L459.129,729.745L500.045,704.292L502.246,707.83L461.33,733.283ZM462.022,754.305L459.822,750.768L500.737,725.314L502.938,728.852L462.022,754.305ZM462.715,775.328L460.514,771.79L501.429,746.337L503.63,749.875L462.715,775.328Z" style="fill:white;"/>
            </g>
        </g>
        <g id="pen" transform="matrix(1.00309,0.295511,-0.295511,1.00309,204.303,-89.4039)">
            <g>
                <g transform="matrix(0.216645,-0.12508,3.3061e-17,0.912549,393.642,121.471)">
                    <rect x="611.623" y="161.121" width="129.745" height="578.849" style="fill:white;"/>
                </g>
                <g transform="matrix(0.216645,0.12508,-1.0809e-17,0.912549,310.9,-47.7613)">
                    <rect x="611.623" y="161.121" width="129.745" height="578.849" style="fill:rgb(172,170,170);"/>
                </g>
                <rect x="471.118" y="208" width="55.426" height="512" style="fill:rgb(239,238,238);"/>
            </g>
            <g>
                <path d="M554.62,141.23C554.62,141.23 554.72,182.022 554.256,184.364L554.256,184.365L554.256,184.365C552.874,191.346 547.551,198.113 538.287,203.462C516.51,216.034 481.151,216.034 459.374,203.462C450.11,198.113 444.787,191.346 443.405,184.365L443.405,184.365L443.405,184.364C442.941,182.023 443.042,141.23 443.042,141.23L554.62,141.23Z" style="fill:url(#_Linear1);"/>
                <g transform="matrix(0.416443,-0.240433,0.416443,0.240433,183.101,69.3048)">
                    <circle cx="228.818" cy="529.34" r="94.746" style="fill:rgb(153,153,153);"/>
                </g>
            </g>
            <g>
                <path d="M498.831,863.935L554.256,704L526.543,720L498.831,863.935Z" style="fill:rgb(194,190,189);"/>
                <path d="M472.005,720.512L443.405,704L498.831,863.935L472.005,720.512Z" style="fill:rgb(130,129,129);"/>
                <path d="M471.118,720L526.543,720L498.831,863.935L471.118,720Z" style="fill:rgb(159,157,156);"/>
            </g>
            <path d="M480.359,810.633L490.137,816.278L507.846,816.278L516.294,811.401L498.831,863.935L480.359,810.633Z" style="fill-opacity:0.44;"/>
        </g>
    </g>
    <defs>
        <linearGradient id="_Linear1" x1="0" y1="0" x2="1" y2="0" gradientUnits="userSpaceOnUse" gradientTransform="matrix(-111.224,1.3621e-14,-1.3621e-14,-111.224,554.256,165.863)"><stop offset="0" style="stop-color:rgb(194,190,189);stop-opacity:1"/><stop offset="1" style="stop-color:rgb(128,128,128);stop-opacity:1"/></linearGradient>
    </defs>
</svg>
