<?xml version="1.0" encoding="UTF-8" standalone="no"?>
<!DOCTYPE svg PUBLIC "-//W3C//DTD SVG 1.1//EN" "http://www.w3.org/Graphics/SVG/1.1/DTD/svg11.dtd">
<svg width="100%" height="100%" viewBox="0 0 1000 1000" version="1.1" xmlns="http://www.w3.org/2000/svg" xmlns:xlink="http://www.w3.org/1999/xlink" xml:space="preserve" xmlns:serif="http://www.serif.com/" style="fill-rule:evenodd;clip-rule:evenodd;stroke-linejoin:round;stroke-miterlimit:2;">
    <g transform="matrix(1,0,0,1,60.0166,60.0402)">
        <path d="M761.54,50.06L792.717,68.06L792.717,168.06L760.113,186.883L760.113,586.883L531.941,718.619L531.977,746.805C568.572,764.294 629.101,793.267 629.466,793.733C630.412,794.937 630.158,796.873 628.493,799.171C625.42,803.412 618.695,807.295 613.485,807.836C612.481,807.94 611.607,807.913 610.871,807.77C610.325,807.664 562.995,786.156 532.009,772.059L532.089,834.502C532.089,836.992 530.445,839.483 527.157,841.381C520.58,845.178 509.902,845.178 503.326,841.381C500.008,839.465 498.364,836.947 498.394,834.434L498.627,798.735C475.357,840.809 436.339,911.315 435.941,911.761C435.428,912.337 434.753,912.877 433.918,913.359C429.581,915.863 422.539,915.863 418.202,913.359C415.853,912.003 414.776,910.188 414.972,908.411C415.053,907.681 470.384,803.283 498.948,749.426L499.025,737.623L271.064,869.236L262.403,864.236L262.403,474.236L238.46,488.06L207.283,470.06L207.283,370.06L761.54,50.06Z" style="fill:rgb(255,125,197);fill-opacity:0.5;"/>
    </g>
    <path d="M489.812,857.432C470.345,892.285 451.768,925.315 451.489,925.628C449.658,927.681 447.313,929.682 444.335,931.401C434.249,937.225 417.872,937.225 407.786,931.401C396.386,924.82 393.312,914.742 394.265,906.122C394.291,905.891 394.842,901.896 398.07,895.66C404.8,882.656 431.553,832.095 455.572,786.766L281.48,887.278C275.034,891 267.093,891 260.647,887.278L251.987,882.278C245.541,878.557 241.57,871.679 241.57,864.236L241.57,508.66C236.974,509.353 232.198,508.501 228.044,506.102L196.867,488.102C190.421,484.381 186.45,477.503 186.45,470.06L186.45,370.06C186.45,362.617 190.421,355.739 196.867,352.018L751.123,32.018C757.569,28.296 765.51,28.296 771.956,32.018L803.133,50.018C809.579,53.739 813.55,60.617 813.55,68.06L813.55,168.06C813.55,175.503 809.579,182.381 803.133,186.102L780.947,198.911L780.947,586.883C780.947,594.326 776.976,601.204 770.53,604.926C770.53,604.926 552.79,730.638 552.79,730.638L552.794,733.665C585.31,749.215 627.678,769.516 636.938,774.136C643.193,777.257 645.657,780.618 645.853,780.868C651.08,787.527 654.565,798.694 645.364,811.394C639.276,819.796 625.955,827.487 615.635,828.558C612.286,828.905 609.37,828.699 606.913,828.224C606.493,828.142 579.932,816.43 552.884,804.321L552.922,834.475L552.922,834.502C552.922,843.113 548.943,852.859 537.573,859.423C525.248,866.539 505.234,866.539 492.909,859.423C491.809,858.788 490.777,858.123 489.812,857.432ZM506.59,779.483C508.25,780.169 509.791,781.057 511.189,782.114L511.176,772.085C511.175,771.641 511.189,771.199 511.216,770.759C509.719,773.583 508.174,776.497 506.59,779.483ZM511.11,720.653L511.108,718.645C511.098,711.193 515.07,704.303 521.524,700.576L739.28,574.855L739.28,186.883C739.28,179.44 743.251,172.563 749.697,168.841L771.883,156.032L771.883,80.088L761.54,74.116L228.117,382.088L228.117,458.032L238.46,464.004L251.987,456.194C258.433,452.473 266.374,452.473 272.82,456.194C279.266,459.916 283.237,466.793 283.237,474.236L283.237,838.152L488.608,719.581C495.075,715.847 503.046,715.86 509.5,719.615C510.056,719.938 510.593,720.284 511.11,720.653Z" style="fill:rgb(62,62,112);"/>
    <g transform="matrix(1,0,0,1,-38.6678,36.0598)">
        <path d="M453.64,872.351C453.749,871.367 554.256,682 554.256,682L554.256,732C554.256,732 475.176,875.066 474.609,875.701L474.609,875.701L474.609,875.701C474.095,876.277 473.421,876.817 472.586,877.299C468.249,879.803 461.207,879.803 456.87,877.299C454.52,875.943 453.444,874.128 453.64,872.351L453.64,872.351L453.64,872.351Z" style="fill:url(#_Linear1);"/>
        <g transform="matrix(-0.954991,0.551364,0.426702,0.739069,729.122,-137.176)">
            <path d="M453.64,872.351C453.749,871.367 524.422,738.442 524.422,738.442L535.607,765.647C535.607,765.647 475.176,875.066 474.609,875.701L474.609,875.701L474.609,875.701C474.095,876.277 473.421,876.817 472.586,877.299C468.249,879.803 461.207,879.803 456.87,877.299C454.52,875.943 453.444,874.128 453.64,872.351L453.64,872.351L453.64,872.351Z" style="fill:url(#_Linear2);"/>
        </g>
        <path d="M570.757,798.442C570.757,800.932 569.113,803.423 565.824,805.321C559.248,809.118 548.57,809.118 541.993,805.321C538.676,803.406 537.032,800.887 537.062,798.374L537.955,661.412L570.558,642.588L570.757,798.442Z" style="fill:url(#_Linear3);"/>
        <g transform="matrix(0.815083,-0.470588,4.52462e-17,1,146.715,227.294)">
            <g transform="matrix(1,0,0,1.00875,5.68434e-14,-6.12381)">
                <rect x="200" y="303.469" width="600" height="396.531" style="fill:white;"/>
            </g>
            <g transform="matrix(1.22687,0.57735,-5.55112e-17,1,-180,-312)">
                <path d="M301.071,828.176L309.731,833.176L309.731,423.176L301.071,423.098L301.071,828.176Z" style="fill:rgb(232,232,232);"/>
            </g>
            <g transform="matrix(1,0,0,1,9.18184,34.5286)">
                <path d="M560,500L420,500L420,560L460,560L460,580L380,580L380,540L340,540L340,480L380,480L380,400L420,400L420,360L560,360L560,400L600,400.458L600,480L640,480L640,540L600,540L600,580L520,580L520,560L560,560L560,500ZM530,470L570,470L570,430L530,430L530,470ZM410,470L450,470L450,430L410,430L410,470ZM340,360L380,360L380,401.064L340,401.064L340,360ZM641.636,360L600,360L600,400L641.636,400L641.636,360Z" style="fill:rgb(236,137,184);fill-rule:nonzero;"/>
            </g>
        </g>
        <g transform="matrix(0.815083,-0.470588,4.52462e-17,1,115.538,209.294)">
            <rect x="160" y="200" width="680" height="100" style="fill:rgb(164,164,164);"/>
        </g>
        <path d="M277.128,452L245.951,434L245.951,334L277.128,352L277.128,452Z" style="fill:rgb(137,137,137);"/>
        <path d="M277.128,352L245.951,334L800.207,14L831.384,32L277.128,352Z" style="fill:rgb(152,152,152);"/>
        <g transform="matrix(0.815083,-0.470588,4.52462e-17,1,146.715,227.294)">
            <rect x="160" y="200" width="680" height="100" style="fill:rgb(164,164,164);"/>
        </g>
    </g>
    <defs>
        <linearGradient id="_Linear1" x1="0" y1="0" x2="1" y2="0" gradientUnits="userSpaceOnUse" gradientTransform="matrix(-51.5879,54.0549,-54.0549,-51.5879,537.061,758.072)"><stop offset="0" style="stop-color:rgb(108,108,108);stop-opacity:1"/><stop offset="1" style="stop-color:rgb(105,105,105);stop-opacity:1"/></linearGradient>
        <linearGradient id="_Linear2" x1="0" y1="0" x2="1" y2="0" gradientUnits="userSpaceOnUse" gradientTransform="matrix(58.6783,136.226,105.426,-75.8214,502.572,779.579)"><stop offset="0" style="stop-color:rgb(160,160,160);stop-opacity:1"/><stop offset="1" style="stop-color:rgb(103,103,103);stop-opacity:1"/></linearGradient>
        <linearGradient id="_Linear3" x1="0" y1="0" x2="1" y2="0" gradientUnits="userSpaceOnUse" gradientTransform="matrix(33.6955,0,0,33.6955,537.061,727.955)"><stop offset="0" style="stop-color:rgb(106,106,106);stop-opacity:1"/><stop offset="1" style="stop-color:rgb(164,164,164);stop-opacity:1"/></linearGradient>
    </defs>
</svg>
