<?xml version="1.0" encoding="UTF-8"?>
<svg id="Calque_1" data-name="Calque 1" xmlns="http://www.w3.org/2000/svg" viewBox="0 0 1818 1385.47">
  <path d="m0,1044.12v-101c1.7-9.39,1.11-18.93,1.58-28.39,2.27-45.79,6.67-91.36,13.07-136.75,16.36-116.06,46.5-228.47,89.57-337.42,44.1-111.57,100.61-216.61,166.71-316.61,3.95-5.97,8.67-10.02,15.17-12.95C400.97,59.31,520.35,22.36,644.42.55c7.26-1.28,8.85-.5,12.44,5.99,15.44,27.86,29.84,56.24,42.35,85.53,1.68,3.93,3.81,5.05,8.05,4.4,13.5-2.07,27.05-3.86,40.61-5.46,34.92-4.12,69.93-6.92,105.08-8.24,42.16-1.59,84.31-1.55,126.43.56,43.44,2.17,86.7,6.49,129.75,12.74,7.65,1.11,7.65,1,10.69-5.95,12.49-28.57,26.06-56.6,40.99-83.99,2.58-4.74,5.73-7.01,11.24-5.81,5.53,1.2,11.15,1.98,16.72,3.02,119.98,22.48,235.51,59.04,346.66,109.5,3.47,1.57,6.07,3.8,8.21,6.96,50.56,74.66,95.32,152.62,133.49,234.34,56.24,120.41,96.26,245.95,119,376.92,10.47,60.3,17.26,121.01,20.23,182.16.48,9.96-.05,19.99,1.62,29.89v98c-.25,1.64-.69,3.27-.72,4.92-.66,33.66-3.48,67.19-6.16,100.73-.42,5.24-2.45,8.91-6.75,12.03-61.54,44.79-125.77,85.29-193.16,120.7-81.22,42.67-165.76,77.31-253.34,104.58-8.05,2.51-9.34,2.03-14.19-4.78-32.52-45.69-61.97-93.26-87.87-143.01-4.41-8.48-3.64-10.77,5.22-14.16,46.48-17.76,91.26-39.12,134.38-63.95,7.27-4.19,7.54-8.09,1-13.19-7.35-5.74-14.86-11.31-21.96-17.35-4.31-3.67-8.24-3.83-13.24-1.53-38.18,17.59-77.24,32.93-117.19,46.02-120.4,39.45-243.79,57.86-370.54,53.34-38.51-1.37-76.8-4.73-114.92-10.17-83.51-11.94-164.45-33.63-243.09-64.06-19.9-7.7-39.65-15.75-58.98-24.8-5.45-2.55-9.81-2.59-14.55,1.66-5.82,5.22-12.08,10-18.46,14.51-10.6,7.5-9.56,11.35,1.38,17.46,42.42,23.66,86.04,44.72,131.35,62.25,8.26,3.2,9.3,5.87,5.61,13.08-26.05,50.82-55.98,99.25-89.51,145.48-2.98,4.11-6.33,5.47-11.16,3.84-7.26-2.45-14.61-4.63-21.89-7.03-87.29-28.71-171.51-64.53-252.19-108.59-60.49-33.04-118.47-70.03-174.17-110.63-3.99-2.91-5.77-6.26-6.17-11.21-2.03-25.07-3.84-50.14-5.23-75.26-.51-9.29.26-18.67-1.49-27.89Zm1048.75-285.64c.34,11.01.25,18.99,1.24,26.96,5.84,47.14,25,87.71,60.65,119.42,37.99,33.8,82.46,46.97,132.6,36.24,47.76-10.22,82.13-39.14,105.96-80.88,20.23-35.43,27.73-73.93,24.83-114.55-3.49-48.95-21.99-91.02-57.94-124.75-26.55-24.91-58.17-39.46-94.68-41.48-51.89-2.87-94.4,17.07-127.78,56.21-30.79,36.1-44.63,78.63-44.87,122.82Zm-604.46,3.57c.22,3.16.49,6.31.65,9.47,2.73,53.08,22.55,98.45,62.38,134.02,33.52,29.93,73.18,43.4,118.08,37.94,46.14-5.61,82.08-29.25,108.86-66.62,30.33-42.31,40.65-90.02,34.71-141.27-5.62-48.54-26.4-89.55-64.22-120.99-61.51-51.15-149.35-47.42-206.94,11.82-36.54,37.59-52.66,83.71-53.52,135.64Z"/>
</svg>