<?xml version="1.0" encoding="UTF-8"?>
<svg id="Calque_1" data-name="Calque 1" xmlns="http://www.w3.org/2000/svg" viewBox="0 0 770.07 769.61">
  <path d="m385.2.21c33.33,0,66.67-.56,99.98.15,34.93.74,69.97.69,104.56,6.76,34.96,6.13,67.52,18.2,95.86,40.11,35.33,27.32,58.66,62.77,70.81,105.66,6.94,24.49,9.74,49.55,11.13,74.92,1.96,35.79,1.36,71.61,2.11,107.4.57,27.16.43,54.31.4,81.46-.03,29.49-.06,58.99-1,88.45-.97,30.43-1.47,60.94-7.63,90.97-8.57,41.79-26.15,78.81-56.73,109.22-30.87,30.69-68.5,47.82-110.67,56.02-21.47,4.18-43.23,5.34-65.05,6.21-80.95,3.24-161.92,1.79-242.88,1.4-32.75-.16-65.63-.65-98.15-5.68-42.12-6.51-80.64-21.12-113.21-49.75-37.03-32.55-57.62-73.84-66.6-121.64-3.76-20.02-5.22-40.26-6-60.57C-.72,457.21-.01,383.07.36,308.94c.16-31.46.59-62.96,2.85-94.36,2.68-37.41,10.15-73.72,28.91-106.67C62.81,53.98,109.77,22.25,169.87,9.13c21.88-4.78,44.11-6.09,66.43-7.23C285.92-.63,335.57.44,385.2.21Zm-.12,70.25c-47.32,0-94.65-.89-141.95,1.06-20.95.87-41.88,2.11-62.45,6.94-31.61,7.43-58.15,22.82-77.93,48.91-17.57,23.18-25.03,50.14-28.32,78.49-3.21,27.67-3.7,55.53-3.76,83.3-.18,79.97-1.85,159.95,1.42,239.9.73,18,1.68,35.93,5.22,53.62,5.46,27.36,16.27,52.04,36.18,72.21,22.91,23.21,51.5,34.27,82.99,39.26,26.58,4.21,53.46,4.55,80.22,4.7,82.98.47,165.97,1.54,248.93-.9,19.62-.57,39.25-1.73,58.57-5.84,57.34-12.2,93.38-46.3,107.17-103.59,6.17-25.64,6.41-51.84,7.43-77.92.93-23.8,1-47.64,1.07-71.46.18-58.65.47-117.31-.96-175.95-.51-21.12-1.03-42.28-3.96-63.27-2.99-21.47-8.6-42.19-19.81-60.92-20.52-34.27-51.57-53.44-90.07-61.56-29.04-6.13-58.61-6.16-88.03-6.79-37.31-.79-74.66-.19-111.98-.19Z"/>
  <path d="m582.79,384.57c.02,108.31-87.14,196.07-194.33,197.82-109.48,1.79-199.87-86.03-201.19-195.62-1.3-108.72,86.94-198.39,194.4-199.84,109.75-1.48,200.96,86.81,201.12,197.64Zm-198.02-127.32c-67.85-.8-127.61,55.15-127.44,128.02.16,70.41,57.21,126.77,128.02,127.02,67.58.24,127.41-54.1,127.41-127.63,0-73.8-60.3-128.44-127.99-127.42Z"/>
  <path d="m544,178.78c.15-25.19,21.18-45.79,46.64-45.69,25.3.11,46.26,21.04,46.27,46.21.02,25.41-21.19,46.89-46.32,46.92-25.84.03-46.75-21.26-46.6-47.45Z"/>
</svg>