<?xml version="1.0" encoding="UTF-8" standalone="no"?>
<!DOCTYPE svg PUBLIC "-//W3C//DTD SVG 1.1//EN" "http://www.w3.org/Graphics/SVG/1.1/DTD/svg11.dtd">
<svg width="100%" height="100%" viewBox="0 0 1000 1100" version="1.1" xmlns="http://www.w3.org/2000/svg" xmlns:xlink="http://www.w3.org/1999/xlink" xml:space="preserve" xmlns:serif="http://www.serif.com/" style="fill-rule:evenodd;clip-rule:evenodd;stroke-linejoin:round;stroke-miterlimit:2;">
    <g transform="matrix(7.90626,0,0,7.90626,-720.547,-6764.05)">
        <path d="M119.405,916.692L126.358,912.677L140.265,920.706L140.265,952.823L154.245,960.894L154.172,960.936L154.172,976.91L147.219,980.925L119.405,964.866L119.405,916.692ZM169.907,961.907L169.76,961.822L169.76,945.764L183.667,937.735L190.62,941.75L190.62,949.779L197.574,945.764L204.527,949.779L204.527,965.837L162.807,989.924L155.853,985.91L155.853,969.852L169.907,961.907ZM162.807,900.463L162.807,884.405L176.713,876.376L183.667,880.39L183.667,912.507L169.76,920.536L169.76,936.594L155.853,944.623L148.9,940.609L148.9,908.492L162.807,900.463Z" style="fill:rgb(255,125,197);fill-opacity:0.5;"/>
    </g>
    <g transform="matrix(1,0,0,1,0,50)">
        <path d="M452.458,725.238L452.458,775.126L547.542,721.375L547.542,600.547C547.542,595.337 550.322,590.523 554.834,587.918L665.685,523.918C670.197,521.313 675.756,521.313 680.269,523.918L735.694,555.918C740.206,558.523 742.986,563.337 742.986,568.547L742.986,607.288L776.537,587.918C781.049,585.313 786.608,585.313 791.12,587.918L846.545,619.918C851.058,622.523 853.837,627.337 853.837,632.547L853.837,760.547C853.837,765.758 851.058,770.572 846.545,773.177L513.992,965.177C509.48,967.782 503.92,967.782 499.408,965.177L443.983,933.177C439.471,930.572 436.691,925.758 436.691,920.547L436.691,866.333L389.74,893.44C385.228,896.045 379.669,896.045 375.157,893.44L153.455,765.44C148.942,762.835 146.163,758.021 146.163,752.811L146.163,368.811C146.163,363.601 148.942,358.786 153.455,356.181L208.88,324.181C213.392,321.576 218.951,321.576 223.463,324.181L334.315,388.181C338.827,390.786 341.606,395.601 341.606,400.811L341.606,648.391L445.751,708.519C450.283,711.136 453.066,715.981 453.042,721.215C453.036,722.596 452.834,723.948 452.458,725.238ZM423.291,729.231L319.731,669.44C315.219,666.835 312.44,662.021 312.44,656.811L312.44,409.231L216.172,353.65L175.33,377.231L175.33,744.391L382.449,863.971C382.449,863.971 423.291,840.391 423.291,840.391L423.291,729.231ZM576.709,723.5C577.477,725.301 577.887,727.266 577.878,729.289C577.854,734.523 575.028,739.342 570.472,741.918L465.858,801.056L465.858,912.128L506.7,935.708L824.67,752.128L824.67,640.967C824.67,640.967 783.828,617.387 783.828,617.387L735.694,645.177C731.182,647.782 725.623,647.782 721.111,645.177C716.599,642.572 713.819,637.758 713.819,632.547L713.819,576.967L672.977,553.387L576.709,608.967L576.709,723.5ZM492.117,231.033L492.117,111.453C492.117,106.242 494.896,101.428 499.408,98.823L610.26,34.823C614.772,32.218 620.331,32.218 624.843,34.823L680.269,66.823C684.781,69.428 687.56,74.242 687.56,79.453L687.56,335.453C687.56,340.663 684.781,345.477 680.269,348.082L576.709,407.872L576.709,527.453C576.709,532.663 573.929,537.477 569.417,540.082L458.566,604.082C454.054,606.687 448.495,606.687 443.983,604.082L388.557,572.082C384.045,569.477 381.265,564.663 381.265,559.453L381.265,303.453C381.265,298.242 384.045,293.428 388.557,290.823L492.117,231.033ZM513.992,252.082L410.432,311.872L410.432,551.033L451.274,574.613L547.542,519.033L547.542,399.453C547.542,394.242 550.322,389.428 554.834,386.823L658.394,327.033L658.394,87.872C658.394,87.872 617.551,64.292 617.551,64.292L521.283,119.872L521.283,239.453C521.283,244.663 518.504,249.477 513.992,252.082Z" style="fill:rgb(62,62,112);"/>
    </g>
    <g transform="matrix(1,0,0,1,0,50)">
        <g transform="matrix(1,0,0,1,-2.84217e-13,20.5474)">
            <g transform="matrix(1,0,0,1,-5.53069,-3.73656)">
                <g transform="matrix(0.903801,0.52181,-5.0171e-17,1.04362,63.4398,-101.183)">
                    <path d="M113.783,377.35L113.783,745.3L359.083,745.3L359.083,622.65L236.433,622.65L236.433,377.35L113.783,377.35Z" style="fill:rgb(235,235,235);"/>
                </g>
                <g transform="matrix(1,0,0,1,-55.4256,-32)">
                    <path d="M221.703,384L277.128,352L387.979,416L332.554,448L221.703,384Z" style="fill:rgb(220,218,217);"/>
                </g>
                <path d="M332.554,640L443.99,704.338L387.979,736L277.128,672L332.554,640Z" style="fill:rgb(220,218,217);"/>
                <g transform="matrix(1,0,0,1,-55.4256,-32)">
                    <path d="M332.554,448L387.979,416L387.979,672L332.554,704L332.554,448Z" style="fill:white;"/>
                </g>
                <g transform="matrix(1,0,0,1,55.4256,32)">
                    <path d="M387.979,672.668L332.554,704L332.554,832L387.979,800L387.979,672.668Z" style="fill:white;"/>
                </g>
            </g>
            <g transform="matrix(1,0,0,1,63.295,36)">
                <path d="M554.256,576L498.831,544L498.831,672L554.256,704L554.256,576Z" style="fill:rgb(172,170,170);"/>
                <g transform="matrix(0.903801,-0.52181,5.0171e-17,1.04362,-108.893,501.06)">
                    <path d="M611.084,683.975L979.035,683.975L979.035,561.325L856.384,561.325L856.384,438.675L733.734,438.675L733.734,561.325L611.084,561.325L611.084,683.975Z" style="fill:white;"/>
                </g>
                <path d="M387.979,736L443.405,768L554.256,704L500,672.675L387.979,736Z" style="fill:rgb(220,218,217);"/>
                <path d="M443.405,768L387.979,736L387.979,864L443.405,896L443.405,768Z" style="fill:rgb(235,235,235);"/>
                <path d="M554.256,576L498.831,544L609.682,480L665.108,512L554.256,576Z" style="fill:rgb(220,218,217);"/>
                <path d="M665.108,640L665.108,576L720.533,544L775.959,576L665.108,640Z" style="fill:rgb(220,218,217);"/>
            </g>
        </g>
        <g transform="matrix(1,0,0,1,-213.833,-112.547)">
            <path d="M775.959,256L720.533,224L831.384,160L886.81,192L775.959,256Z" style="fill:rgb(89,180,229);"/>
            <path d="M665.108,704L609.682,672L609.682,416L665.108,448L665.108,704Z" style="fill:rgb(90,165,218);"/>
            <path d="M720.533,352L775.959,384L775.959,256L720.533,224L720.533,352Z" style="fill:rgb(90,165,218);"/>
            <path d="M775.959,384L720.533,352L609.682,416L665.108,448L775.959,384Z" style="fill:rgb(89,180,229);"/>
            <g transform="matrix(0.903801,-0.52181,5.0171e-17,1.04362,378.968,-190.833)">
                <path d="M316.596,770.43L316.596,1015.73L439.246,1015.73L439.246,893.08L561.896,893.08L561.896,647.78L439.246,647.78L439.246,770.43L316.596,770.43Z" style="fill:rgb(132,208,237);"/>
            </g>
        </g>
    </g>
</svg>
